PathFileType	4	(X/Y/Z)	Patient4_TMGait_0pt4_01_right_36.trc.trc
DataRate	CameraRate	NumFrames	NumMarkers	Units	OrigDataRate	OrigDataStartFrame	OrigNumFrames
74.866310160428	74.866310160428	6	33	mm	74.866310160428	53	       141
Frame#	Time	Sacral			L.Shoulder			Chest			R.Shoulder			Neck			R.ASIS			L.ASIS			R.Thigh.Superior			R.Thigh.Lateral			R.Thigh.Inferior			R.Patella			L.Thigh.Superior			L.Thigh.Lateral			L.Thigh.Inferior			L.Patella			L.Shank.Superior			L.Shank.Lateral			L.Shank.Inferior			R.Shank.Superior			R.Shank.Lateral			R.Shank.Inferior			R.Heel			R.Midfoot.Superior			R.Midfoot.Lateral			R.Toe			L.Heel			L.Midfoot.Lateral			L.Midfoot.Superior			L.Toe			L.Elbow			L.Wrist			R.Elbow			R.Wrist			
		X1	Y1	Z1	X2	Y2	Z2	X3	Y3	Z3	X4	Y4	Z4	X5	Y5	Z5	X6	Y6	Z6	X7	Y7	Z7	X8	Y8	Z8	X9	Y9	Z9	X10	Y10	Z10	X11	Y11	Z11	X12	Y12	Z12	X13	Y13	Z13	X14	Y14	Z14	X15	Y15	Z15	X16	Y16	Z16	X17	Y17	Z17	X18	Y18	Z18	X19	Y19	Z19	X20	Y20	Z20	X21	Y21	Z21	X22	Y22	Z22	X23	Y23	Z23	X24	Y24	Z24	X25	Y25	Z25	X26	Y26	Z26	X27	Y27	Z27	X28	Y28	Z28	X29	Y29	Z29	X30	Y30	Z30	X31	Y31	Z31	X32	Y32	Z32	X33	Y33	Z33	

53	47.604571428571	813.586189977847	1005.320556292887	540.631248615311	958.674049978606	1434.729534523515	337.058293117235	1080.371073118717	1374.144865743023	487.275993908996	1014.575832494391	1447.978603190570	668.289438124314	956.885725254366	1498.794995201696	492.877627702646	1053.648870232241	945.273111440334	634.251952293797	1011.483379543269	969.654013075728	362.781636060305	1079.402775921897	738.507745736266	599.462815337847	992.896817529286	633.069528841562	663.846581029908	1059.723488166223	577.322522741355	579.116439918209	1052.584597127521	491.507546081485	584.136777558536	1101.614919629859	788.965626514413	383.535256284235	1055.648081311393	661.897867490307	305.373911558231	1165.308734195701	603.769763779307	358.013030586764	1183.774162336447	519.826422992273	348.327012654454	1130.888487740085	447.338348290332	340.538817982733	1000.580111752210	374.499674669176	299.876698529352	1026.462769052924	243.398856140139	346.185400444429	1023.147078460114	403.345530274541	590.908319904803	950.188128996403	300.566317073276	650.745808339103	989.533516246977	205.730462870056	585.282484222071	852.721610066170	42.769282503914	550.972177390554	1022.373993928729	96.336633114880	592.984533745363	933.276976879912	36.928588236309	629.701955161676	1141.915536798275	43.806923887205	626.100047555842	864.534676463336	132.206788497519	395.870799472764	921.909734672194	106.338069192955	307.428077143659	1023.322729487943	138.143461724705	320.602681502173	1121.146278115245	50.044515656534	276.788273238239	904.812169927983	1078.601840976306	243.626628296723	957.118389281775	823.052688915160	237.124979420475	1110.985641896430	1127.920822225391	814.139989950321	1355.422453836125	1074.443544403009	757.901609862212	
54	47.617928571429	812.392766749964	1006.174527269325	542.692680137437	957.334142979386	1434.791588005829	338.133070640775	1080.565525979815	1373.728253738972	486.905040791715	1017.250155117632	1448.121977785035	668.579576456044	957.654125074782	1498.845090969990	493.758324867373	1053.132480232801	944.750415106530	634.007163262098	1008.768942514738	970.016468467544	362.863753189460	1076.932736080541	737.800207618105	598.850401393522	990.174768611666	632.914145834346	664.068154577258	1055.788324186471	576.739358602345	578.856909372096	1048.148564627803	491.147482785496	584.064974623791	1099.028179573476	790.035348960841	384.040471460261	1053.831366942230	662.895159770095	305.797921915764	1163.051025747228	605.063387115424	359.547424514502	1182.931988262377	522.664432600444	349.402622773925	1133.538448630095	449.428847914556	340.922728586177	1008.079517629182	369.403018024891	299.226422670260	1041.564866169530	239.550195274740	345.069277789080	1018.508103386259	403.085031862904	590.932244091624	945.517651080963	300.432066169980	650.927889601905	984.410126388227	205.578646255854	585.352162059326	847.335364619589	42.725268778057	551.081278698672	1016.968025129674	96.315066483322	593.026964082174	927.884676064265	36.880138461674	629.764364756337	1136.516249390433	43.805595593771	626.116459314265	886.682312227934	117.794823522842	393.695453842162	945.938515222213	96.462467938356	305.296716095688	1045.028250782778	134.649805866443	318.986200913087	1148.589807975333	53.652192743217	275.010464287955	896.922651571208	1079.135768538725	247.256838496830	942.747311165571	822.410072371630	242.109766167736	1119.377781531130	1130.389537996417	813.709368292826	1364.889310841383	1090.831259644546	753.185497439066	
55	47.631285714286	811.218056864350	1006.910029890614	544.602562426635	956.060023722563	1434.804081742589	339.096808131093	1080.776583298474	1373.185154427250	486.411968231722	1019.927599355462	1448.094361277547	668.734021044250	958.452972378559	1498.807487817123	494.506973227691	1052.626745671437	944.169122978342	633.580157793325	1006.090068911784	970.223349487025	362.756381153675	1074.538200558749	737.073322115207	598.176173756746	987.580835118936	632.702609865583	664.234282797546	1052.008626348019	576.134811346751	578.569385546118	1043.876161846734	490.744761810242	583.988563663581	1096.180047913819	790.662678228898	384.551475384694	1051.738766746121	663.576607037965	306.093024523176	1160.184952402563	605.806833992923	361.288302635583	1181.483016372333	525.123154589518	350.667541962193	1135.677449475209	451.312775580618	341.485915144289	1015.736193836434	364.250003084162	298.248626756269	1056.556626665239	236.114132887849	344.024426312444	1013.998510033544	402.774398027736	590.940553777925	940.948363840911	300.274623704866	651.100003082728	979.335785549364	205.394872018340	585.413816825719	841.954098285772	42.684683601673	551.194737113003	1011.559688086439	96.281435567112	593.059525614419	922.494678918032	36.829261512934	629.823384121223	1131.118080371372	43.787940400148	626.129101543410	909.084166376998	104.375537915013	390.965665335946	970.427698696936	87.393836720834	303.054686195833	1066.780839917022	131.750076728014	317.689997050742	1175.791047229692	57.889742087197	274.431172880866	889.232154774875	1079.765568687106	250.778214946922	928.895907186002	822.086911174711	246.867964288399	1127.531796838651	1132.616117639801	812.894424285135	1373.258278406409	1106.683694262307	748.265985503813	
56	47.644642857143	810.103119559679	1007.519757270903	546.357641916328	954.855929546359	1434.775443428437	339.931293235705	1080.989256296528	1372.539926000039	485.799705137617	1022.563152710585	1447.914563069338	668.747335900172	959.264948416782	1498.695732665907	495.111211050231	1052.144202782002	943.555433707345	632.991141504139	1003.479394577333	970.280878570299	362.472036118246	1072.239476822441	736.332707959028	597.474092415679	985.109430468735	632.441200489894	664.348528154384	1048.392498635702	575.509957821959	578.269521348594	1039.765499797740	490.304040300694	583.907911135250	1093.118124648272	790.888154157273	385.074923656578	1049.430133842149	663.988388061258	306.237080185028	1156.826013313523	606.069854524355	363.123894090995	1179.523401499557	527.232090660215	352.048813147466	1137.327838471636	453.022660706733	342.195375009653	1023.442723955329	359.265302792263	296.988741741229	1071.149374048346	233.274486898411	343.112948214056	1009.614988326014	402.418647203510	590.931252130647	936.475558247477	300.100821201665	651.261250479824	974.313508450671	205.184496009368	585.465441450615	836.575897468052	42.651539557765	551.307985445418	1006.153572915770	96.241502358437	593.090515241412	917.108132575790	36.778984746774	629.880276087768	1125.722135235503	43.754244769708	626.139919878697	931.261286946748	92.375703369869	387.828677516005	994.881681616184	79.433750619095	300.848728086341	1088.160211768436	129.607820968487	316.802619404450	1202.213426263608	62.718896705984	275.161068981275	881.790958188030	1080.484287774928	254.159605056097	915.623133421924	822.051081483627	251.341559171853	1135.408754925089	1134.591840788312	811.691778155108	1380.562782070518	1121.845614530196	743.189670624333	
57	47.658000000000	809.089424953160	1008.005157939489	547.952998553442	953.723817788583	1434.717563767855	340.620987183682	1081.190040546720	1371.824786603135	485.073048392063	1025.113669293106	1447.610389978676	668.615432485940	960.072344492024	1498.526788546772	495.563018286821	1051.698581085287	942.936881344083	632.262529224223	1000.970747477448	970.207198410626	362.026114686294	1070.049834073671	735.582972300089	596.776179159888	982.740419681450	632.140853373143	664.412631505983	1044.931268609026	574.867383032265	577.970073635582	1035.798630034818	489.833214520086	583.820612901941	1089.902884818092	790.763588084585	385.596707912825	1046.951706229922	664.172054415450	306.222049077737	1153.104317021046	605.926787855019	364.918356734751	1177.143250844569	529.014606989427	353.461292030118	1138.510086454379	454.578101675483	342.996023051648	1031.036275218073	354.623787758751	295.525287422969	1085.055871394063	231.128331322428	342.371572430223	1005.342094776619	402.029085729738	590.902927561064	932.083485298168	299.920276837089	651.410833269816	969.339254030256	204.955616393274	585.506235817036	831.198624740958	42.629839397701	551.416616909852	1000.753376260019	96.200834811160	593.127616602588	911.725020026178	36.731990839721	629.935905955616	1120.329196858471	43.705735712993	626.150484593375	952.731087450950	82.065616848991	384.479150777942	1018.765198928213	72.745501601576	298.821079014542	1108.745891171378	128.274462318498	316.355393229235	1227.347253517282	68.002905923795	277.151308036526	874.651810401569	1081.286602958251	257.360077268960	902.991399581347	822.270306145046	255.476323905353	1142.957717460879	1136.315352120084	810.100541704811	1386.848777873502	1136.181508853903	738.001423059725	
58	47.671357142857	808.215609298009	1008.373605560794	549.381340268053	952.662865418767	1434.642604351825	341.153645766735	1081.367665196050	1371.075394901686	484.238253671778	1027.539238671959	1447.213726523867	668.336427620897	960.856504411912	1498.318076759295	495.857706470581	1051.304374493813	942.338689441581	631.417166333082	998.599194164455	970.027226017987	361.435742011581	1067.974754427708	734.827332926804	596.108502038310	980.443580562946	631.816000798722	664.427881645472	1041.602795166906	574.210841233680	577.680913486255	1031.945815673689	489.342068311148	583.723715784147	1086.612759224707	790.347080707882	386.080154799630	1044.336594415863	664.155225612366	306.059922652720	1149.160111432035	605.446850186335	366.529277309054	1174.429163309698	530.480903905330	354.817988792242	1139.243761760023	455.980317127676	343.819205823496	1038.308792002083	350.441226801841	293.965800296110	1098.000419907343	229.684524245054	341.812754245302	1001.156299209388	401.621753765227	590.856544409096	927.748203100132	299.744088761172	651.549415439563	964.403296930683	204.717838793527	585.537346508505	825.820376270607	42.623037801960	551.517170853832	995.361644252712	96.163782855431	593.176711209033	906.344425739152	36.690359264249	629.990869846028	1114.939618797145	43.644245757126	626.161945201809	973.027034639853	73.561844662531	381.147716737594	1041.518077679310	67.362159903650	297.097671916012	1128.126110254555	127.693092973446	316.321872038175	1250.711699253872	73.511591592855	280.188531048639	867.868668912821	1082.165349420425	260.330488366131	891.068181961446	822.710038182987	259.222111863048	1150.119287527330	1137.788971068120	808.124988538310	1392.172607397265	1149.576917968821	732.744236065869	
